<?xml version="1.0" encoding="UTF-8" standalone="no"?>
<svg
   xmlns:dc="http://purl.org/dc/elements/1.1/"
   xmlns:cc="http://creativecommons.org/ns#"
   xmlns:rdf="http://www.w3.org/1999/02/22-rdf-syntax-ns#"
   xmlns:svg="http://www.w3.org/2000/svg"
   xmlns="http://www.w3.org/2000/svg"
   id="svg8"
   version="1.1"
   viewBox="0 0 35.983332 25.929168"
   height="98"
   width="136">
  <defs
     id="defs2" />
  <metadata
     id="metadata5">
    <rdf:RDF>
      <cc:Work
         rdf:about="">
        <dc:format>image/svg+xml</dc:format>
        <dc:type
           rdf:resource="http://purl.org/dc/dcmitype/StillImage" />
        <dc:title></dc:title>
      </cc:Work>
    </rdf:RDF>
  </metadata>
  <g
     transform="translate(1.0583333,-272.12915)"
     id="layer1">
    <rect
       y="273.45206"
       x="0.26458332"
       height="23.283333"
       width="33.337502"
       id="rect815"
       style="fill:#09096d;fill-opacity:1;stroke:none;stroke-width:5.4686594;stroke-miterlimit:4;stroke-dasharray:none;stroke-opacity:1;paint-order:markers stroke fill" />
    <ellipse
       ry="0.68480396"
       rx="0.6803605"
       cy="294.68103"
       cx="2.3056648"
       id="path817"
       style="fill:#ffffff;fill-opacity:1;stroke:none;stroke-width:4.08623409;stroke-miterlimit:4;stroke-dasharray:none;stroke-opacity:1;paint-order:markers stroke fill" />
    <ellipse
       ry="0.68480396"
       rx="0.6803605"
       cy="275.5065"
       cx="2.3056648"
       id="path817-3"
       style="fill:#ffffff;fill-opacity:1;stroke:none;stroke-width:4.08623409;stroke-miterlimit:4;stroke-dasharray:none;stroke-opacity:1;paint-order:markers stroke fill" />
    <ellipse
       ry="0.68480396"
       rx="0.6803605"
       cy="275.5065"
       cx="31.561167"
       id="path817-6"
       style="fill:#ffffff;fill-opacity:1;stroke:none;stroke-width:4.08623409;stroke-miterlimit:4;stroke-dasharray:none;stroke-opacity:1;paint-order:markers stroke fill" />
    <ellipse
       ry="0.68480396"
       rx="0.6803605"
       cy="294.68103"
       cx="31.561167"
       id="path817-7"
       style="fill:#ffffff;fill-opacity:1;stroke:none;stroke-width:4.08623409;stroke-miterlimit:4;stroke-dasharray:none;stroke-opacity:1;paint-order:markers stroke fill" />
    <path
       id="path846"
       d="M 2.9517642,292.11566 V 278.0719 c 1.0988968,0 1.974633,-0.67041 1.974633,-1.91505 H 28.940432 c 0,0.94439 0.517299,1.91505 1.974634,1.91505 v 14.04376 c -1.163609,0 -1.974634,0.67999 -1.974634,1.91506 H 4.9263972 c 0,-1.00445 -0.6614218,-1.91506 -1.974633,-1.91506 z"
       style="fill:none;stroke:#ffffff;stroke-width:1.29641163;stroke-linecap:butt;stroke-linejoin:miter;stroke-miterlimit:4;stroke-dasharray:none;stroke-opacity:1" />
    <g
       id="flowRoot848"
       style="font-style:normal;font-weight:normal;font-size:40px;line-height:1.25;font-family:sans-serif;letter-spacing:0px;word-spacing:0px;fill:#000000;fill-opacity:1;stroke:none"
       transform="matrix(0.35938534,0,0,0.3617325,-52.704853,-82.198513)"
       aria-label="42">
      <path
         id="path916"
         style="font-style:normal;font-variant:normal;font-weight:normal;font-stretch:normal;font-size:53.33333588px;font-family:C059;-inkscape-font-specification:C059;text-align:center;text-anchor:middle;fill:#ffffff;fill-opacity:1"
         d="m 182.9128,996.59659 -18.13334,25.22671 v 2.9866 h 14.98667 v 2.7734 c 0,2.72 0,2.8266 -0.32,3.3066 -0.42666,0.5867 -1.44,0.7467 -4.48,0.7467 h -0.58666 v 2.5067 h 15.57333 v -2.5067 h -0.21333 c -3.04,0 -4.05334,-0.16 -4.48,-0.7467 -0.32,-0.48 -0.32,-0.5333 -0.32,-3.3066 v -2.7734 h 6.45333 v -2.9866 h -6.45333 v -14.56 c 0,-6.6667 0,-6.8267 0.26666,-10.66671 z m -3.14667,25.22671 H 168.0328 l 11.73333,-16.16 z" />
      <path
         id="path918"
         style="font-style:normal;font-variant:normal;font-weight:normal;font-stretch:normal;font-size:53.33333588px;font-family:C059;-inkscape-font-specification:C059;text-align:center;text-anchor:middle;fill:#ffffff;fill-opacity:1"
         d="m 219.87279,1022.6233 h -2.34667 l -0.53333,2.72 c -0.69334,3.4666 -1.12,3.7866 -4.42667,3.7866 h -11.94667 c 3.68,-3.84 4.90667,-4.96 8.32,-7.6266 4.85334,-3.7334 6.93334,-5.6 8.16,-7.2 1.70667,-2.3467 2.56,-4.6934 2.56,-7.3067 0,-6.08 -5.01333,-10.40001 -12,-10.40001 -6.77333,0 -11.94666,4.32001 -11.94666,10.02671 0,3.36 1.70666,5.6533 4.21333,5.6533 1.97333,0 3.30667,-1.3333 3.30667,-3.2533 0,-1.3334 -0.74667,-2.56 -1.86667,-3.04 -1.97333,-0.8 -2.08,-0.9067 -2.08,-1.6 0,-0.8 0.53333,-2.0267 1.28,-2.9334 1.33333,-1.65331 3.52,-2.55998 6.02667,-2.55998 4.42666,0 7.04,2.71998 7.04,7.19998 0,3.9467 -1.86667,7.52 -6.29334,12.2134 -3.94666,4.16 -6.4,6.7733 -7.30666,7.7866 -1.92,2.24 -2.88,3.4667 -5.22667,6.56 v 1.4934 h 24.05333 z" />
    </g>
  </g>
</svg>
